<?xml version="1.0" encoding="iso-8859-1"?>
<!-- Generator: Adobe Illustrator 19.0.0, SVG Export Plug-In . SVG Version: 6.00 Build 0)  -->
<svg version="1.1" id="Layer_1" xmlns="http://www.w3.org/2000/svg" xmlns:xlink="http://www.w3.org/1999/xlink" x="0px" y="0px"
	 viewBox="0 0 512 512" style="enable-background:new 0 0 512 512;" xml:space="preserve">
<path d="M256,0C114.615,0,0,114.615,0,256s114.615,256,256,256s256-114.615,256-256S397.385,0,256,0z
	 M256,63.461c85.044,0,157.378,55.429,182.797,132.054h-90.2H163.404H73.203C98.623,118.89,170.956,63.461,256,63.461z M63.461,256
	h74.408l9.35,43.985c0.998,4.696,2.446,9.201,4.266,13.489l-53.05,53.05C76.411,335.222,63.461,297.097,63.461,256z
	 M140.527,409.972l55.421-55.421c7.376,2.467,15.235,3.809,23.358,3.809h73.39c8.123,0,15.982-1.342,23.358-3.809l55.421,55.421
	c-32.193,24.205-72.187,38.567-115.473,38.567S172.72,434.177,140.527,409.972z M413.566,366.525l-53.05-53.05
	c1.82-4.289,3.268-8.792,4.266-13.489l9.35-43.985h74.408C448.539,297.097,435.59,335.222,413.566,366.525z"/>
<g style="opacity:0.1;">
	<path d="M235.984,358.359h27.166c-8.123,0-15.982-1.342-23.358-3.809L235.984,358.359z"/>
	<path d="M43.846,256c0-133.998,102.957-243.933,234.077-255.056C270.695,0.331,263.387,0,256,0C114.615,0,0,114.615,0,256
		s114.615,256,256,256c7.387,0,14.695-0.331,21.923-0.944C146.803,499.933,43.846,389.998,43.846,256z"/>
</g>
<circle cx="256.001" cy="276.932" r="40.33"/>
<path style="opacity:0.1;enable-background:new    ;" d="M241.054,276.936c0-17.837,11.586-32.96,27.638-38.281
	c-3.992-1.323-8.256-2.05-12.692-2.05c-22.274,0-40.33,18.056-40.33,40.33s18.056,40.33,40.33,40.33c4.436,0,8.7-0.727,12.692-2.05
	C252.64,309.897,241.054,294.775,241.054,276.936z"/>
<g>
</svg>
